<svg id="leftLand" width="1440" height="253" viewBox="0 0 1440 253" fill="none" xmlns="http://www.w3.org/2000/svg">
<g id="left">
<g id="longRight">
<path id="Vector" d="M1460.13 22.92C1337.63 25.86 1206.45 -27.92 1092.68 19.98C1068.68 30.09 1046.58 44.42 1022.23 53.67C987.33 66.94 949.36 69.22 912.08 71.36C888.14 72.73 863.91 74.09 840.34 69.66C798.74 61.84 756.61 36.34 716.98 51.2C697.74 58.42 683.1 74.16 665.48 84.72C647.98 95.22 627.9 100.41 608.13 105.48C541.02 122.68 472.82 140.01 403.57 137.94C354.85 136.48 305.11 125.52 258.07 138.27C237.61 143.82 218.52 153.68 198.07 159.27C179.95 164.22 161.1 165.72 142.51 168.48C85.54 176.94 30.42 197.58 -18.13 228.56V253.09H1460.13V22.92Z" fill="url(#paint0_linear_243_12579)"/>
<g id="Vector_2" style="mix-blend-mode:multiply">
<path d="M1460.13 253.1V69.17C1458.94 69.18 1457.75 69.21 1456.56 69.28C1449.32 69.68 1440.31 74.0999 1433.3 73.0599C1425.38 71.8899 1419.29 65.03 1411.91 62.03C1394.41 54.91 1373.77 56.96 1356.05 62.16C1331.03 69.5 1307.3 82.5099 1281.29 84.3099C1224.26 88.2599 1172.3 37.7399 1115.92 47.17C1057.48 56.9499 1025.08 125.77 968 141.64C923.04 154.14 877.11 130.56 832.32 117.45C787.53 104.34 727.29 108.75 709.66 151.96C702.7 169.03 703.67 190.14 690.69 203.24C677.23 216.83 654.53 215.3 636.84 208.01C619.15 200.72 603.41 188.76 584.96 183.7C571.48 180 557.29 180.18 543.31 180.39C487.74 181.23 432.18 182.07 376.61 182.91C398.07 193.25 418.03 206.68 435.69 222.67C408.61 235.61 378.36 216 351.48 202.66C307.81 180.98 256.46 175.17 209.05 186.57C226.97 189.36 224.71 219.32 208.67 227.78C192.62 236.23 173.23 231.05 155.3 228.31C103.31 220.35 50.8 234.87 0.209984 249.26C-4.24002 250.52 -8.70001 251.79 -13.14 253.13H1460.13V253.1Z" fill="#C1AAD1"/>
</g>
<g id="Group" opacity="0.3">
<path id="Vector_3" d="M840.35 69.67C798.75 61.85 756.62 36.35 716.99 51.21C697.75 58.43 683.11 74.17 665.49 84.73C657.61 89.45 649.21 93.1 640.55 96.15C643.65 96.14 646.76 96.17 649.88 96.34C664.87 97.13 680.16 100.06 694.68 96.24C709.07 92.46 721.04 82.44 735.03 77.39C756.42 69.67 779.99 74.23 802.51 77.42C886.83 89.35 972.56 80.52 1057.21 71.14C1074.79 69.19 1092.56 67.18 1109.19 61.15C1124.55 55.58 1138.51 46.75 1153.57 40.44C1222.49 11.57 1304.07 38.66 1375.26 17.96C1278.69 6.61997 1180.49 -16.99 1092.67 19.99C1068.67 30.1 1046.57 44.43 1022.22 53.68C987.32 66.95 949.35 69.23 912.07 71.37C888.13 72.74 863.9 74.1 840.33 69.67H840.35Z" fill="url(#paint1_linear_243_12579)"/>
<path id="Vector_4" d="M142.52 168.49C115.25 172.54 88.41 179.41 62.51 188.84C74.23 189.96 85.88 191.08 97.07 191.36C129.93 192.18 162.34 184.51 194.32 176.9C250.35 163.55 306.39 150.21 362.42 136.86C364.11 136.46 365.81 136.05 367.51 135.66C330.56 132.55 293.55 128.68 258.08 138.29C237.62 143.84 218.53 153.7 198.08 159.29C179.96 164.24 161.11 165.74 142.52 168.5V168.49Z" fill="url(#paint2_linear_243_12579)"/>
</g>
</g>
<g id="shortRightShadow" style="mix-blend-mode:multiply">
<path id="Vector_5" d="M734.59 218.7C729.62 229.91 727.23 242.37 721.54 253.1H1460.13V72.25C1430.09 47.7 1397.05 28.6 1355.41 42.99C1339.49 48.49 1325.3 58.28 1309.31 63.57C1273.21 75.51 1234.23 63.1 1196.39 59.32C1158.55 55.54 1112.31 66.44 1100.19 102.48C1093.88 121.24 1098.85 141.89 1095.93 161.47C1088.79 209.32 1034.54 238.63 986.34 234.5C938.14 230.37 895.8 201.8 857.62 172.09C838.12 156.92 816.25 140.31 791.66 142.66C767.07 145.01 747.9 179.77 767.35 195C753.02 192.67 740.48 205.43 734.59 218.71V218.7Z" fill="#C1AAD1"/>
<path id="Vector_6" d="M128.36 247.25C100.77 250.81 71.44 249.41 44.01 253.1H585.23C546.35 234.44 506.87 215.66 464.76 220.06C436.73 222.99 409.98 236.27 381.82 235.14C356.92 234.14 333.9 221.99 309.44 217.21C248.9 205.39 189.54 239.34 128.37 247.24L128.36 247.25Z" fill="#C1AAD1"/>
</g>
<g id="ShortLightRightBottom">
<path id="Vector_7" d="M1175.53 158.25C1187.81 150.81 1200.49 143.21 1214.67 140.98C1224.76 139.39 1235.07 140.62 1245.28 140.26C1279.43 139.06 1313.14 120.24 1346.28 128.56C1360.49 132.13 1373.76 140.6 1388.4 140.16C1399.16 139.84 1409.37 134.66 1420.14 134.58C1441.6 134.43 1458.79 154.11 1480.15 156.2C1494.64 157.61 1509.29 150.67 1523.55 153.62C1525.06 153.93 1526.73 154.51 1527.34 155.93C1527.74 156.87 1527.55 157.95 1527.32 158.94C1522.82 177.86 1503.62 190.13 1484.49 193.62C1465.36 197.11 1445.75 193.86 1426.33 192.73C1405.26 191.51 1383.87 192.85 1363.6 198.75C1342.26 204.97 1321.72 216.28 1299.49 215.73C1270.72 215.02 1245.8 194.58 1217.25 190.97C1203.35 189.21 1188.96 191.52 1175.42 187.92C1169.29 186.29 1154.24 183.23 1154.29 175.21C1154.34 167.25 1170.03 161.58 1175.53 158.25Z" fill="url(#paint3_linear_243_12579)"/>
<path id="Vector_8" d="M1244.62 257.88C1238.65 255.54 1232.69 253.08 1226.75 250.49C1215.13 245.41 1203.22 239.52 1193.93 226.75C1188.68 219.52 1184.3 210.14 1178.12 205.39C1163.03 193.8 1144.46 214.39 1129.09 203.89C1123.47 200.05 1119.04 192.44 1113.55 188.11C1100.34 177.71 1084.98 188.33 1071.5 197.72C1048.66 213.64 1022.79 226.19 999.56 211.95C985.23 203.16 971.31 184.33 956.54 190.74C944.65 195.9 936.85 216.22 925.05 221.93C917.22 225.72 908.89 222.5 900.78 221.13C873.26 216.51 845.05 233.69 818.14 222.98C807.46 218.73 797.4 210.18 786.49 208.12C761.34 203.37 740.92 233.11 722.62 257.88H1244.61H1244.62Z" fill="url(#paint4_linear_243_12579)"/>
<g id="Vector_9" style="mix-blend-mode:multiply">
<path d="M980.5 257.88C975.99 254.43 971.67 250.59 967.35 247.05C956.21 237.89 941.22 229.82 927.93 235.42C924.02 237.07 920.63 239.8 916.68 241.37C904.57 246.19 891.04 239.08 878.04 239.85C863.02 240.75 850.76 251.84 836.99 257.87H980.49L980.5 257.88Z" fill="#C1AAD1"/>
</g>
<g id="Vector_10" style="mix-blend-mode:multiply">
<path d="M1074.66 241.7C1064 247.51 1053.11 252.9 1042.03 257.87H1243.69C1243.69 257.75 1243.7 257.62 1243.7 257.5C1238.03 255.27 1232.38 252.94 1226.75 250.47C1215.13 245.39 1203.22 239.5 1193.93 226.73C1192.39 224.61 1190.92 222.29 1189.46 219.97C1189.46 220.23 1189.46 220.49 1189.44 220.76C1188.95 225.42 1186.31 229.99 1182.3 232.47C1175.15 236.89 1165.62 235.6 1158.28 231.51C1151.26 227.59 1144.52 221.08 1136.58 222.34C1130.33 223.33 1125.25 229.12 1118.93 228.78C1110.54 228.33 1106.86 218.18 1100.62 212.56C1093 205.7 1079.81 206.43 1072.99 214.08C1066.17 221.73 1066.97 234.92 1074.66 241.7Z" fill="#C1AAD1"/>
</g>
<g id="Vector_11" style="mix-blend-mode:multiply">
<path d="M801.78 257.88C786.02 251.64 771.01 239.69 754.18 235.79C749.66 234.74 744.98 234.36 740.33 234.6C734.17 242.06 728.29 250.2 722.62 257.89H801.78V257.88Z" fill="#C1AAD1"/>
</g>
</g>
<g id="RightLeaf">
<g id="Group_2">
<path id="Vector_12" d="M1116.01 201.89C1122.16 202.91 1126.51 207.91 1130.85 212.39C1135.18 216.87 1139.36 221.77 1144.99 224.45C1146.22 225.04 1147.5 225.5 1148.8 225.86C1152.71 226.92 1156.9 226.98 1160.97 226.32C1162.78 226.03 1164.57 225.6 1166.31 225.05C1169.78 223.96 1172.71 222.61 1175.53 221.06C1176.94 220.28 1178.34 219.46 1179.76 218.58C1180.64 218.04 1181.55 217.47 1182.48 216.9C1186.14 216.65 1189.77 215.97 1193.26 214.85C1216.59 237.88 1235.09 265.69 1247.24 296.22C1243.27 296.14 1239.32 295.51 1235.52 294.37C1233.9 293.42 1232.51 292.04 1231.39 290.44C1230.8 289.6 1230.28 288.7 1229.85 287.79C1228.1 284.14 1227.31 280.11 1225.78 276.37C1225.57 275.86 1225.35 275.35 1225.11 274.85C1224.88 274.35 1224.62 273.86 1224.36 273.38C1220.43 266.12 1213.61 260.45 1205.74 257.88C1196.82 254.96 1186.73 256.01 1178.48 260.48C1181.23 261.95 1183.23 264.22 1184.88 266.82C1185.09 267.15 1185.29 267.48 1185.48 267.81C1185.87 268.48 1186.25 269.17 1186.61 269.87C1186.79 270.22 1186.97 270.57 1187.14 270.92C1187.84 272.33 1188.5 273.77 1189.16 275.18C1190.49 278 1191.76 280.9 1193.25 283.64C1194.74 286.38 1196.45 288.96 1198.69 291.14C1199.34 291.77 1200.03 292.36 1200.75 292.91C1204.7 295.91 1209.59 297.59 1214.59 298.24C1215.95 298.42 1217.33 298.52 1218.69 298.55C1219.6 298.57 1220.48 298.56 1221.34 298.53C1226.51 298.35 1230.92 297.34 1235.99 296.15C1236.19 296.1 1236.41 296.05 1236.62 296C1240.25 296.96 1243.99 297.48 1247.74 297.52C1250.96 305.74 1253.73 314.15 1255.99 322.72C1256.17 323.4 1256.86 323.8 1257.54 323.62C1257.69 323.58 1257.82 323.52 1257.94 323.44C1258.37 323.15 1258.59 322.6 1258.45 322.07C1255.19 309.74 1250.92 297.74 1245.74 286.16C1245.74 286.16 1245.74 286.15 1245.75 286.14C1247.29 282.3 1248.25 278.25 1248.68 274.13C1248.8 273.95 1248.92 273.77 1249.04 273.6C1252.44 268.57 1255.29 264.28 1257.42 258.28C1257.72 257.42 1258 256.55 1258.25 255.67C1259.72 250.38 1260.06 244.7 1258.53 239.51C1258.28 238.64 1257.97 237.79 1257.61 236.96C1255.5 232.07 1251.73 228.18 1247.99 224.35C1247.35 223.69 1246.71 223.04 1246.08 222.38C1242.3 218.45 1238.13 214.48 1236.62 209.41C1236.4 208.69 1236.24 207.94 1236.14 207.17C1236.1 207.21 1236.06 207.25 1236.02 207.28C1228.98 213.4 1224.47 222.4 1224.03 231.72C1223.64 239.99 1226.51 248.38 1231.9 254.63C1232.26 255.04 1232.62 255.45 1233 255.85C1233.38 256.25 1233.78 256.64 1234.18 257.02C1235.29 258.05 1236.47 259.01 1237.67 259.95C1238.86 260.89 1240.07 261.82 1241.21 262.81C1241.98 263.47 1242.72 264.15 1243.41 264.89C1245.43 267.01 1247.07 269.7 1247.54 272.53C1247.25 276.62 1246.39 280.65 1244.98 284.49C1235.57 263.88 1223.24 244.68 1208.51 227.52C1208.28 223.55 1207.5 219.63 1206.24 215.86C1206.86 212.19 1207.42 208.87 1207.67 205.44C1207.85 203.01 1207.86 200.52 1207.63 197.8C1207.55 196.89 1207.44 195.99 1207.3 195.08C1206.59 190.56 1205.05 186.12 1202.51 182.4C1201.49 180.91 1200.32 179.54 1198.97 178.31C1197.24 176.74 1195.29 175.48 1193.24 174.39C1192.55 174.03 1191.85 173.69 1191.15 173.36C1189.73 172.7 1188.28 172.11 1186.82 171.53C1185.36 170.95 1183.89 170.4 1182.44 169.82C1180.63 169.1 1178.77 168.4 1176.97 167.61C1175.53 166.98 1174.13 166.3 1172.82 165.5C1172.49 165.3 1172.17 165.1 1171.86 164.89C1171.23 164.47 1170.63 164.01 1170.06 163.52C1169.77 163.28 1169.5 163.02 1169.23 162.76C1168.69 162.23 1168.2 161.66 1167.74 161.05C1167.51 160.74 1167.3 160.42 1167.09 160.09C1167.07 160.14 1167.05 160.19 1167.02 160.24C1163.15 168.72 1162.77 178.79 1166.23 187.45C1166.49 188.1 1166.78 188.75 1167.09 189.38C1161.23 185.15 1155.17 181.17 1148.92 177.49C1148.32 177.13 1147.54 177.33 1147.18 177.94C1146.83 178.54 1147.03 179.32 1147.63 179.68C1155.62 184.38 1163.29 189.57 1170.63 195.17C1173.76 199.27 1177.85 202.63 1182.49 204.86C1185.83 207.77 1189.09 210.77 1192.25 213.86C1188.59 214.98 1184.77 215.59 1180.94 215.72C1178.12 215.14 1175.49 213.4 1173.44 211.3C1170.62 208.4 1168.57 204.84 1165.92 201.78C1165.56 201.36 1165.18 200.95 1164.8 200.55C1158.67 194.21 1149.84 190.58 1141.01 190.67C1131.63 190.77 1122.4 194.99 1116.02 201.87L1116.01 201.89ZM1207.09 225.87C1201.34 219.29 1195.21 213.03 1188.77 207.12C1191.74 207.9 1194.77 208.48 1197.61 209.63C1197.84 209.72 1198.08 209.82 1198.31 209.93C1199.47 210.45 1200.6 211.1 1201.63 211.86C1202.04 212.17 1202.43 212.49 1202.8 212.84C1202.99 213.01 1203.17 213.19 1203.34 213.37C1203.77 213.82 1204.17 214.31 1204.51 214.82C1205.84 218.38 1206.7 222.1 1207.08 225.88L1207.09 225.87Z" fill="url(#paint5_linear_243_12579)"/>
<g id="Group_3" opacity="0.3">
<path id="Vector_13" d="M1207.09 225.87C1207 225.01 1206.89 224.15 1206.75 223.29C1207.32 225.48 1207.73 227.7 1207.96 229.95C1202.21 223.37 1196.08 217.11 1189.64 211.19C1191.19 211.59 1192.75 211.95 1194.3 212.36C1198.74 216.7 1203.01 221.2 1207.09 225.86V225.87Z" fill="url(#paint6_linear_243_12579)"/>
<path id="Vector_14" d="M1207.11 219.94C1207.15 219.7 1207.18 219.48 1207.22 219.24C1207.51 220.4 1207.75 221.57 1207.95 222.75C1207.7 221.8 1207.42 220.87 1207.11 219.94Z" fill="url(#paint7_linear_243_12579)"/>
<path id="Vector_15" d="M1209.38 231.61C1209.31 230.45 1209.18 229.29 1209.02 228.14C1223.53 245.14 1235.69 264.13 1244.98 284.49C1246.26 280.99 1247.06 277.33 1247.42 273.62C1247.83 274.53 1248.17 275.46 1248.35 276.42C1247.84 279.75 1246.99 283.02 1245.74 286.15C1245.74 286.15 1245.74 286.16 1245.73 286.17C1245.91 286.57 1246.07 286.98 1246.24 287.38C1246.11 287.78 1245.99 288.19 1245.85 288.58C1236.44 267.97 1224.11 248.77 1209.38 231.61Z" fill="url(#paint8_linear_243_12579)"/>
<path id="Vector_16" d="M1165.91 201.79C1168.56 204.85 1170.6 208.41 1173.43 211.31C1175.48 213.41 1178.11 215.15 1180.93 215.73C1183.84 215.63 1186.73 215.25 1189.56 214.59C1189.92 214.93 1190.28 215.28 1190.64 215.62C1187.97 216.3 1185.24 216.73 1182.48 216.92C1181.56 217.5 1180.65 218.06 1179.76 218.6C1179.57 218.71 1179.39 218.81 1179.21 218.92C1177.39 218.08 1175.7 216.84 1174.29 215.4C1171.47 212.5 1169.42 208.94 1166.77 205.88C1166.41 205.46 1166.03 205.05 1165.65 204.65C1159.52 198.31 1150.69 194.68 1141.86 194.77C1133.85 194.85 1125.97 197.96 1119.87 203.14C1118.66 202.57 1117.38 202.11 1116.01 201.89C1122.39 195.01 1131.61 190.79 1141 190.69C1149.83 190.6 1158.66 194.23 1164.79 200.57C1165.18 200.97 1165.55 201.38 1165.91 201.8V201.79Z" fill="url(#paint9_linear_243_12579)"/>
<path id="Vector_17" d="M1167.08 191.55C1167.28 192.06 1167.52 192.56 1167.75 193.06C1161.28 188.27 1154.57 183.79 1147.61 179.69C1147.01 179.33 1146.81 178.56 1147.16 177.95C1147.51 177.35 1148.29 177.15 1148.9 177.5C1154.82 180.99 1160.56 184.75 1166.13 188.73C1166.41 189.68 1166.71 190.62 1167.08 191.55Z" fill="url(#paint10_linear_243_12579)"/>
<path id="Vector_18" d="M1258.47 241.04C1256.36 236.15 1252.59 232.26 1248.85 228.43C1248.21 227.77 1247.57 227.12 1246.94 226.46C1243.16 222.53 1238.99 218.56 1237.48 213.49C1237.26 212.77 1237.1 212.02 1237 211.25C1236.96 211.29 1236.92 211.33 1236.88 211.36C1229.84 217.48 1225.33 226.48 1224.89 235.8C1224.79 237.82 1224.9 239.84 1225.18 241.84C1224.28 238.55 1223.86 235.12 1224.02 231.72C1224.46 222.4 1228.97 213.4 1236.01 207.28C1236.01 207.28 1236.09 207.2 1236.13 207.17C1236.23 207.94 1236.39 208.69 1236.61 209.41C1238.13 214.48 1242.3 218.45 1246.07 222.38C1246.7 223.04 1247.34 223.69 1247.98 224.35C1251.72 228.18 1255.49 232.07 1257.6 236.96C1257.96 237.8 1258.27 238.65 1258.52 239.51C1258.89 240.78 1259.15 242.07 1259.31 243.38C1259.07 242.59 1258.8 241.8 1258.47 241.04Z" fill="url(#paint11_linear_243_12579)"/>
<path id="Vector_19" d="M1207.32 195.27C1206.46 192.13 1205.17 189.13 1203.37 186.49C1202.35 185 1201.18 183.62 1199.83 182.4C1198.1 180.83 1196.15 179.57 1194.1 178.48C1193.41 178.12 1192.71 177.78 1192.01 177.45C1190.59 176.79 1189.14 176.2 1187.68 175.62C1186.22 175.04 1184.75 174.49 1183.3 173.91C1181.49 173.19 1179.63 172.49 1177.83 171.7C1176.39 171.07 1174.99 170.39 1173.68 169.59C1173.35 169.39 1173.03 169.19 1172.72 168.98C1172.09 168.56 1171.49 168.1 1170.92 167.61C1170.63 167.36 1170.36 167.11 1170.09 166.85C1169.55 166.32 1169.06 165.75 1168.6 165.14C1168.37 164.83 1168.16 164.51 1167.95 164.18C1167.93 164.23 1167.91 164.28 1167.88 164.33C1165.06 170.52 1164.12 177.54 1165.14 184.25C1162.91 176.38 1163.61 167.7 1167.01 160.24C1167.03 160.19 1167.05 160.14 1167.08 160.09C1167.29 160.42 1167.5 160.74 1167.73 161.05C1168.19 161.66 1168.68 162.23 1169.22 162.76C1169.49 163.02 1169.76 163.28 1170.05 163.52C1170.62 164.01 1171.22 164.46 1171.85 164.89C1172.16 165.1 1172.49 165.31 1172.81 165.5C1174.12 166.29 1175.52 166.98 1176.96 167.61C1178.76 168.4 1180.62 169.1 1182.43 169.82C1183.88 170.4 1185.35 170.95 1186.81 171.53C1188.27 172.11 1189.72 172.7 1191.14 173.36C1191.85 173.69 1192.55 174.03 1193.23 174.39C1195.29 175.48 1197.23 176.74 1198.96 178.31C1200.31 179.53 1201.49 180.91 1202.5 182.4C1205.04 186.12 1206.58 190.56 1207.29 195.08C1207.29 195.14 1207.3 195.2 1207.31 195.26L1207.32 195.27Z" fill="url(#paint12_linear_243_12579)"/>
</g>
</g>
<g id="Group_4">
<path id="Vector_20" d="M1332.56 239.93C1339.89 234.62 1347.97 230.12 1353.97 223.35C1359.97 216.57 1364.61 206.54 1360.86 198.31C1347.14 201.2 1334.58 209.29 1326.28 220.6C1318.99 230.54 1315.06 242.87 1315.14 255.19C1311.62 244.19 1308.65 233.01 1306.27 221.73C1307.02 221.12 1307.72 220.46 1308.4 219.78C1313.52 216.56 1318.76 212.99 1322.85 208.87C1328.1 203.59 1332.15 196.77 1332.68 189.34C1333.15 182.75 1330.85 176.29 1330.4 169.7C1329.76 160.52 1333.16 150.82 1339.14 143.84C1329.43 146.4 1322.27 154.99 1318.56 164.33C1314.85 173.67 1313.99 183.84 1312.69 193.8C1311.54 202.62 1309.91 211.61 1305.81 219.44C1302.45 202.93 1300.29 186.22 1299.51 169.53C1299.51 169.5 1299.5 169.48 1299.49 169.46C1313.07 150.75 1319.51 124.42 1314.86 101.89C1304.5 109.55 1296.96 120.95 1293.97 133.48C1291.14 145.31 1292.38 158.06 1297.38 169.14C1297.31 169.3 1297.26 169.46 1297.27 169.65C1297.94 183.98 1299.61 198.32 1302.18 212.55C1301.52 212.13 1300.9 211.68 1300.25 211.25C1299.05 209.85 1298.13 208.16 1297.54 206.42C1296.26 202.63 1296.21 198.56 1295.77 194.59C1294.49 183.12 1289.72 172.07 1282.27 163.26C1278.11 158.35 1273.16 154.14 1269.06 149.18C1264.96 144.22 1261.65 138.2 1261.67 131.76C1256.4 143.48 1255.14 156.3 1257.52 168.93C1259.89 181.56 1266.22 193.41 1275.38 202.42C1282.15 209.07 1292.53 214.08 1302.21 214.57C1302.33 214.64 1302.44 214.72 1302.56 214.8C1302.99 217.08 1303.48 219.35 1303.95 221.62C1303.86 221.87 1303.88 222.16 1304.05 222.39C1304.07 222.42 1304.1 222.43 1304.13 222.45C1305.55 229.15 1307.2 235.81 1309.02 242.43C1306.25 237.38 1302.23 233.01 1297.36 229.94C1290.51 225.61 1282.36 223.85 1275.06 220.31C1265.68 215.77 1257.79 208.22 1252.83 199.06C1253.61 214 1260.2 228.66 1270.99 239.03C1280.87 248.53 1295.39 254 1309.26 255C1310.14 255.37 1311.02 255.75 1311.91 256.1C1312.06 256.16 1312.21 256.17 1312.35 256.15C1312.6 256.11 1312.81 255.94 1312.94 255.71C1316.06 265.46 1319.64 275.06 1323.61 284.48C1315.91 275.64 1304.55 270 1292.82 269.46C1279.2 268.84 1265.45 275.12 1256.98 285.8C1265.59 283.79 1274.09 285.92 1281.95 289.96C1287.32 292.71 1292.05 296.76 1297.77 298.69C1307.45 301.96 1320.17 298.92 1325.99 290.62C1326.06 290.62 1326.14 290.64 1326.21 290.63C1334.41 309.06 1344.21 326.73 1355.52 343.21C1355.77 343.58 1356.2 343.75 1356.62 343.68C1356.78 343.65 1356.94 343.59 1357.08 343.5C1357.59 343.15 1357.72 342.45 1357.37 341.94C1346.17 325.62 1336.46 308.13 1328.33 289.88C1328.36 289.58 1328.4 289.29 1328.44 289C1329.83 285.37 1332.42 282.35 1335.47 279.7C1339.29 276.38 1343.63 273.69 1347.35 270.26C1356.82 261.51 1361.13 249.19 1359.1 236.45C1347.9 239.87 1338.11 247.71 1332.32 257.9C1327.56 266.27 1325.56 276.16 1326.55 285.73C1322.79 277 1319.36 268.11 1316.35 259.08C1316.54 257.96 1316.77 256.86 1317.02 255.75C1320.23 249.25 1326.52 244.28 1332.53 239.93H1332.56Z" fill="url(#paint13_linear_243_12579)"/>
<g id="Group_5" opacity="0.3">
<path id="Vector_21" d="M1318.57 164.32C1314.86 173.66 1314 183.83 1312.7 193.79C1311.79 200.77 1310.56 207.84 1308.06 214.38C1308.37 216.05 1308.7 217.72 1309.03 219.39C1309.45 219.13 1309.87 218.86 1310.28 218.59C1313.64 211.27 1315.11 203.09 1316.16 195.05C1317.46 185.09 1318.32 174.91 1322.03 165.58C1324.87 158.44 1329.72 151.75 1336.19 147.85C1337.09 146.44 1338.08 145.1 1339.15 143.84C1329.44 146.4 1322.28 154.99 1318.57 164.33V164.32Z" fill="url(#paint14_linear_243_12579)"/>
<path id="Vector_22" d="M1332.36 257.89C1328.84 264.08 1326.84 271.09 1326.43 278.2C1327.52 280.92 1328.63 283.62 1329.78 286.31C1329.85 286.2 1329.92 286.09 1329.99 285.97C1329.23 276.71 1331.23 267.22 1335.82 259.14C1341.05 249.93 1349.57 242.64 1359.44 238.8C1359.36 238.01 1359.26 237.23 1359.14 236.44C1347.94 239.86 1338.15 247.7 1332.36 257.89Z" fill="url(#paint15_linear_243_12579)"/>
<path id="Vector_23" d="M1311.05 241.26C1309.28 234.79 1307.67 228.27 1306.29 221.72C1306.56 221.5 1306.81 221.27 1307.07 221.05C1306.86 220.07 1306.66 219.08 1306.47 218.09C1306.25 218.54 1306.06 219 1305.83 219.44C1305.58 218.21 1305.35 216.98 1305.11 215.75C1304.32 215.7 1303.53 215.61 1302.74 215.5C1303.13 217.54 1303.56 219.57 1303.99 221.6C1303.9 221.85 1303.92 222.14 1304.09 222.37C1304.11 222.4 1304.14 222.41 1304.17 222.43C1305.19 227.23 1306.32 232 1307.55 236.75C1308.85 238.15 1310.02 239.67 1311.07 241.27L1311.05 241.26Z" fill="url(#paint16_linear_243_12579)"/>
<path id="Vector_24" d="M1326.29 220.59C1320.65 228.28 1317.03 237.4 1315.72 246.84C1316.43 249.3 1317.17 251.75 1317.94 254.19C1318.19 253.76 1318.45 253.34 1318.72 252.93C1319.33 241.8 1323.16 230.84 1329.76 221.84C1337.49 211.3 1348.93 203.55 1361.57 200.21C1361.38 199.56 1361.16 198.92 1360.87 198.3C1347.15 201.19 1334.59 209.28 1326.29 220.59Z" fill="url(#paint17_linear_243_12579)"/>
<path id="Vector_25" d="M1293.08 212.84C1287.7 210.65 1282.7 207.41 1278.86 203.64C1269.69 194.64 1263.37 182.78 1261 170.15C1259.01 159.57 1259.61 148.87 1262.94 138.78C1262.14 136.51 1261.68 134.15 1261.69 131.73C1256.42 143.45 1255.16 156.27 1257.54 168.9C1259.91 181.53 1266.24 193.38 1275.4 202.39C1280.05 206.96 1286.41 210.76 1293.08 212.84Z" fill="url(#paint18_linear_243_12579)"/>
<path id="Vector_26" d="M1303.73 212.47C1304.01 212.66 1304.3 212.85 1304.57 213.04C1301.91 198.62 1300.19 184.06 1299.51 169.52C1299.51 169.49 1299.5 169.47 1299.49 169.45C1299.69 169.17 1299.88 168.87 1300.08 168.58C1295.73 157.93 1294.75 145.91 1297.43 134.71C1300.14 123.36 1306.59 112.96 1315.47 105.4C1315.29 104.22 1315.1 103.03 1314.86 101.87C1304.5 109.53 1296.96 120.93 1293.97 133.46C1291.14 145.29 1292.38 158.04 1297.38 169.12C1297.31 169.28 1297.26 169.44 1297.27 169.63C1297.88 182.81 1299.36 196 1301.59 209.1C1302.14 210.32 1302.86 211.47 1303.72 212.48L1303.73 212.47Z" fill="url(#paint19_linear_243_12579)"/>
<path id="Vector_27" d="M1292.83 251.69C1285.96 248.99 1279.6 245.17 1274.48 240.25C1264.87 231.01 1258.6 218.36 1256.79 205.15C1255.33 203.21 1254.01 201.17 1252.85 199.03C1253.63 213.97 1260.22 228.63 1271.01 239C1276.98 244.74 1284.64 248.99 1292.82 251.69H1292.83Z" fill="url(#paint20_linear_243_12579)"/>
</g>
</g>
<g id="Group_6">
<path id="Vector_28" d="M1397.32 258.8C1405.08 263.46 1412.37 269.15 1420.96 272.02C1429.54 274.89 1440.59 275.24 1446.7 268.57C1438.68 257.07 1426.31 248.68 1412.66 245.47C1400.66 242.65 1387.77 243.86 1376.47 248.75C1385.22 241.2 1394.34 234.1 1403.79 227.5C1404.64 227.95 1405.52 228.34 1406.42 228.7C1411.38 232.15 1416.72 235.58 1422.11 237.73C1429.02 240.49 1436.89 241.55 1443.93 239.13C1450.18 236.98 1455.23 232.34 1461.11 229.34C1469.31 225.16 1479.56 224.49 1488.33 227.27C1482.17 219.33 1471.46 216.11 1461.42 216.34C1451.38 216.57 1441.68 219.76 1432 222.47C1423.43 224.86 1414.52 226.88 1405.71 226.17C1419.59 216.62 1434.12 208.09 1449.18 200.85C1449.2 200.84 1449.22 200.82 1449.24 200.81C1471.78 205.99 1498.53 201.62 1517.44 188.52C1506.34 181.98 1492.9 179.5 1480.2 181.65C1468.21 183.67 1456.96 189.8 1448.72 198.74C1448.55 198.74 1448.38 198.76 1448.21 198.84C1435.28 205.06 1422.74 212.21 1410.65 220.14C1410.78 219.37 1410.95 218.62 1411.09 217.86C1411.91 216.21 1413.1 214.7 1414.47 213.48C1417.46 210.82 1421.18 209.19 1424.67 207.22C1434.72 201.55 1443.03 192.85 1448.22 182.54C1451.11 176.79 1453.05 170.59 1456.01 164.88C1458.97 159.16 1463.22 153.77 1469.15 151.27C1456.3 151 1444.01 154.86 1433.32 161.99C1422.63 169.11 1414.19 179.57 1409.49 191.53C1406.02 200.36 1405.47 211.87 1408.81 220.98C1408.79 221.12 1408.76 221.25 1408.74 221.39C1406.81 222.68 1404.91 224.01 1403.01 225.34C1402.74 225.35 1402.48 225.48 1402.33 225.73C1402.31 225.76 1402.32 225.79 1402.3 225.83C1396.68 229.76 1391.2 233.88 1385.83 238.15C1389.39 233.62 1391.84 228.22 1392.77 222.54C1394.08 214.54 1392.51 206.35 1392.9 198.25C1393.41 187.84 1397.27 177.63 1403.77 169.48C1390.32 176.05 1379.41 187.84 1374.09 201.83C1369.21 214.64 1369.86 230.14 1374.36 243.3C1374.36 244.26 1374.36 245.22 1374.38 246.17C1374.38 246.33 1374.43 246.47 1374.51 246.59C1374.64 246.81 1374.88 246.94 1375.14 246.96C1367.39 253.64 1359.95 260.69 1352.84 268.03C1357.97 257.49 1358.72 244.83 1354.62 233.82C1349.86 221.05 1338.71 210.84 1325.56 207.23C1330.77 214.37 1332.14 223.02 1331.5 231.84C1331.07 237.86 1329.19 243.8 1329.65 249.82C1330.43 260 1338.2 270.53 1348.11 272.64C1348.13 272.71 1348.15 272.79 1348.19 272.85C1334.44 287.61 1322.01 303.53 1311.27 320.39C1311.03 320.77 1311.04 321.23 1311.27 321.59C1311.36 321.73 1311.47 321.85 1311.62 321.94C1312.14 322.27 1312.83 322.12 1313.17 321.6C1323.81 304.91 1336.11 289.13 1349.72 274.51C1350 274.42 1350.29 274.35 1350.57 274.26C1354.46 274.12 1358.25 275.32 1361.88 277.09C1366.43 279.31 1370.6 282.25 1375.21 284.33C1386.97 289.62 1400 288.77 1410.92 281.92C1403.39 272.95 1392.34 267 1380.7 265.66C1371.13 264.56 1361.25 266.58 1352.83 271.24C1359.4 264.36 1366.23 257.73 1373.36 251.43C1374.46 251.17 1375.57 250.95 1376.68 250.74C1383.92 251.15 1390.95 255 1397.31 258.82L1397.32 258.8Z" fill="url(#paint21_linear_243_12579)"/>
<g id="Group_7" opacity="0.3">
<path id="Vector_29" d="M1461.43 216.34C1451.39 216.58 1441.69 219.76 1432.01 222.47C1425.23 224.36 1418.24 226 1411.25 226.25C1409.83 227.19 1408.43 228.14 1407.02 229.1C1407.43 229.38 1407.83 229.66 1408.24 229.94C1416.29 230.17 1424.39 228.33 1432.21 226.14C1441.89 223.44 1451.59 220.25 1461.63 220.01C1469.31 219.83 1477.36 221.68 1483.49 226.1C1485.14 226.38 1486.76 226.76 1488.34 227.26C1482.18 219.32 1471.47 216.1 1461.43 216.33V216.34Z" fill="url(#paint22_linear_243_12579)"/>
<path id="Vector_30" d="M1373.37 251.4C1373.84 251.29 1374.31 251.21 1374.79 251.11C1374.98 250.94 1375.17 250.77 1375.36 250.61C1375.1 250.58 1374.86 250.45 1374.73 250.24C1374.65 250.12 1374.61 249.97 1374.6 249.82C1374.58 249.03 1374.58 248.23 1374.58 247.44C1368 253.13 1361.67 259.1 1355.56 265.28C1355.03 267.03 1354.39 268.74 1353.65 270.4C1359.98 263.82 1366.54 257.46 1373.38 251.41L1373.37 251.4Z" fill="url(#paint23_linear_243_12579)"/>
<path id="Vector_31" d="M1387.68 239.52C1392.94 235.36 1398.31 231.33 1403.8 227.49C1404.1 227.65 1404.41 227.8 1404.72 227.94C1405.55 227.36 1406.38 226.8 1407.21 226.23C1406.71 226.21 1406.22 226.21 1405.72 226.17C1406.75 225.46 1407.8 224.76 1408.84 224.06C1408.58 223.31 1408.35 222.55 1408.14 221.78C1406.42 222.94 1404.72 224.13 1403.02 225.31C1402.75 225.32 1402.49 225.45 1402.34 225.7C1402.32 225.73 1402.33 225.76 1402.31 225.8C1398.29 228.61 1394.34 231.53 1390.45 234.52C1389.67 236.26 1388.73 237.93 1387.67 239.52H1387.68Z" fill="url(#paint24_linear_243_12579)"/>
<path id="Vector_32" d="M1412.66 245.46C1403.38 243.28 1393.57 243.52 1384.37 246C1382.38 247.61 1380.42 249.26 1378.47 250.91C1378.96 250.97 1379.45 251.04 1379.94 251.13C1390.42 247.34 1402.01 246.58 1412.87 249.13C1425.6 252.12 1437.2 259.62 1445.22 269.94C1445.74 269.51 1446.24 269.06 1446.71 268.55C1438.69 257.05 1426.32 248.66 1412.67 245.45L1412.66 245.46Z" fill="url(#paint25_linear_243_12579)"/>
<path id="Vector_33" d="M1406.8 211.87C1406.71 206.06 1407.74 200.19 1409.71 195.19C1414.41 183.23 1422.85 172.77 1433.54 165.65C1442.5 159.68 1452.58 156.04 1463.17 155.16C1464.94 153.54 1466.94 152.19 1469.17 151.25C1456.32 150.98 1444.03 154.84 1433.34 161.97C1422.65 169.09 1414.21 179.55 1409.51 191.51C1407.12 197.58 1406.12 204.92 1406.81 211.87H1406.8Z" fill="url(#paint26_linear_243_12579)"/>
<path id="Vector_34" d="M1411.31 221.52C1411.25 221.85 1411.18 222.19 1411.12 222.52C1423.35 214.43 1436.07 207.15 1449.19 200.84C1449.21 200.83 1449.23 200.81 1449.25 200.8C1449.59 200.88 1449.94 200.93 1450.28 201.01C1458.38 192.84 1469.06 187.24 1480.41 185.32C1491.91 183.38 1504.01 185.24 1514.44 190.46C1515.46 189.83 1516.47 189.19 1517.45 188.51C1506.35 181.97 1492.91 179.49 1480.21 181.64C1468.22 183.66 1456.97 189.79 1448.73 198.73C1448.56 198.73 1448.39 198.75 1448.22 198.83C1436.33 204.55 1424.77 211.07 1413.59 218.24C1412.69 219.23 1411.9 220.33 1411.31 221.52Z" fill="url(#paint27_linear_243_12579)"/>
<path id="Vector_35" d="M1331.71 235.49C1331.91 232.66 1331.91 229.86 1331.64 227.11C1331.67 228.67 1331.62 230.24 1331.51 231.81C1331.08 237.83 1329.2 243.77 1329.66 249.79C1329.69 250.2 1329.75 250.6 1329.8 251.01C1329.89 245.83 1331.33 240.69 1331.71 235.49Z" fill="url(#paint28_linear_243_12579)"/>
<path id="Vector_36" d="M1354.83 237.47C1356.09 240.84 1356.88 244.37 1357.24 247.95C1357.16 243.13 1356.31 238.32 1354.62 233.79C1349.86 221.02 1338.71 210.81 1325.56 207.2C1326.6 208.62 1327.48 210.11 1328.23 211.64C1340.3 215.79 1350.37 225.5 1354.83 237.47Z" fill="url(#paint29_linear_243_12579)"/>
<path id="Vector_37" d="M1370.95 226.83C1370.75 219.45 1371.78 212.1 1374.3 205.47C1379.05 193.01 1388.23 182.3 1399.69 175.46C1400.91 173.36 1402.26 171.34 1403.78 169.44C1390.33 176.01 1379.42 187.8 1374.1 201.79C1371.15 209.52 1370.24 218.24 1370.95 226.83Z" fill="url(#paint30_linear_243_12579)"/>
</g>
</g>
</g>
<g id="RightEyes" opacity="0.8">
<g id="Group_8">
<path id="Vector_38" style="mix-blend-mode:screen" d="M775.41 180.51C775.41 187.9 769.42 193.9 762.02 193.9C754.62 193.9 748.63 187.91 748.63 180.51C748.63 173.11 754.62 167.12 762.02 167.12C769.42 167.12 775.41 173.11 775.41 180.51Z" fill="url(#paint31_radial_243_12579)"/>
<path id="Vector_39" style="mix-blend-mode:screen" d="M770.22 180.51C770.22 185.04 766.55 188.71 762.02 188.71C757.49 188.71 753.82 185.04 753.82 180.51C753.82 175.98 757.49 172.31 762.02 172.31C766.55 172.31 770.22 175.98 770.22 180.51Z" fill="url(#paint32_radial_243_12579)"/>
<path id="Vector_40" style="mix-blend-mode:screen" d="M745.78 180.51C745.78 187.9 739.79 193.9 732.39 193.9C724.99 193.9 719 187.91 719 180.51C719 173.11 724.99 167.12 732.39 167.12C739.79 167.12 745.78 173.11 745.78 180.51Z" fill="url(#paint33_radial_243_12579)"/>
<path id="Vector_41" style="mix-blend-mode:screen" d="M740.6 180.51C740.6 185.04 736.93 188.71 732.4 188.71C727.87 188.71 724.2 185.04 724.2 180.51C724.2 175.98 727.87 172.31 732.4 172.31C736.93 172.31 740.6 175.98 740.6 180.51Z" fill="url(#paint34_radial_243_12579)"/>
</g>
<g id="Group_9">
<path id="Vector_42" d="M754.7 179.22L767.13 174.15C767.13 174.15 768.96 181.72 763.02 184.21C757.08 186.7 754.7 179.22 754.7 179.22Z" fill="url(#paint35_linear_243_12579)"/>
<path id="Vector_43" d="M738.94 179.22L726.51 174.15C726.51 174.15 724.68 181.72 730.62 184.21C736.56 186.7 738.94 179.22 738.94 179.22Z" fill="url(#paint36_linear_243_12579)"/>
<path id="Vector_44" d="M754.7 179.22L767.13 174.15C767.13 174.15 768.96 181.72 763.02 184.21C757.08 186.7 754.7 179.22 754.7 179.22Z" fill="url(#paint37_linear_243_12579)"/>
<path id="Vector_45" d="M738.94 179.22L726.51 174.15C726.51 174.15 724.68 181.72 730.62 184.21C736.56 186.7 738.94 179.22 738.94 179.22Z" fill="url(#paint38_linear_243_12579)"/>
<g id="Vector_46" style="mix-blend-mode:multiply">
<path d="M754.7 179.22L767.13 174.15C767.13 174.15 768.96 181.72 763.02 184.21C757.08 186.7 754.7 179.22 754.7 179.22Z" fill="#BCBEC0"/>
</g>
<g id="Vector_47" style="mix-blend-mode:multiply">
<path d="M738.94 179.22L726.51 174.15C726.51 174.15 724.68 181.72 730.62 184.21C736.56 186.7 738.94 179.22 738.94 179.22Z" fill="#BCBEC0"/>
</g>
</g>
</g>
</g>
<defs>
<linearGradient id="paint0_linear_243_12579" x1="721.01" y1="253.1" x2="721.01" y2="0.0299494" gradientUnits="userSpaceOnUse">
<stop/>
<stop offset="0.52" stop-color="#1B123A"/>
<stop offset="0.64" stop-color="#211F48"/>
<stop offset="0.85" stop-color="#2A315B"/>
<stop offset="0.99" stop-color="#2E3862"/>
</linearGradient>
<linearGradient id="paint1_linear_243_12579" x1="1007.91" y1="98.16" x2="1007.91" y2="0.0199711" gradientUnits="userSpaceOnUse">
<stop stop-color="#184D7A"/>
<stop offset="0.29" stop-color="#397D93"/>
<stop offset="0.95" stop-color="#8FF6D4"/>
<stop offset="1" stop-color="#95FFD9"/>
</linearGradient>
<linearGradient id="paint2_linear_243_12579" x1="215.01" y1="191.41" x2="215.01" y2="132.19" gradientUnits="userSpaceOnUse">
<stop stop-color="#184D7A"/>
<stop offset="0.29" stop-color="#397D93"/>
<stop offset="0.95" stop-color="#8FF6D4"/>
<stop offset="1" stop-color="#95FFD9"/>
</linearGradient>
<linearGradient id="paint3_linear_243_12579" x1="1340.93" y1="215.74" x2="1340.93" y2="126.45" gradientUnits="userSpaceOnUse">
<stop/>
<stop offset="0.52" stop-color="#1B123A"/>
<stop offset="0.64" stop-color="#211F48"/>
<stop offset="0.85" stop-color="#2A315B"/>
<stop offset="0.99" stop-color="#2E3862"/>
</linearGradient>
<linearGradient id="paint4_linear_243_12579" x1="983.63" y1="322.63" x2="983.63" y2="183.82" gradientUnits="userSpaceOnUse">
<stop/>
<stop offset="0.52" stop-color="#1B123A"/>
<stop offset="0.64" stop-color="#211F48"/>
<stop offset="0.85" stop-color="#2A315B"/>
<stop offset="0.99" stop-color="#2E3862"/>
</linearGradient>
<linearGradient id="paint5_linear_243_12579" x1="1258.44" y1="322.778" x2="1152.79" y2="169.634" gradientUnits="userSpaceOnUse">
<stop stop-color="#10062A"/>
<stop offset="0.52" stop-color="#1E0C45"/>
<stop offset="0.62" stop-color="#1B1550"/>
<stop offset="0.84" stop-color="#162563"/>
<stop offset="0.99" stop-color="#152B6A"/>
</linearGradient>
<linearGradient id="paint6_linear_243_12579" x1="1207.17" y1="230.169" x2="1192.51" y2="208.908" gradientUnits="userSpaceOnUse">
<stop stop-color="#002A68"/>
<stop offset="0.27" stop-color="#115A80"/>
<stop offset="0.88" stop-color="#3BD3BC"/>
<stop offset="1" stop-color="#45EDC9"/>
</linearGradient>
<linearGradient id="paint7_linear_243_12579" x1="1208.41" y1="222.122" x2="1206.53" y2="219.398" gradientUnits="userSpaceOnUse">
<stop stop-color="#002A68"/>
<stop offset="0.27" stop-color="#115A80"/>
<stop offset="0.88" stop-color="#3BD3BC"/>
<stop offset="1" stop-color="#45EDC9"/>
</linearGradient>
<linearGradient id="paint8_linear_243_12579" x1="1249.78" y1="285.552" x2="1209.65" y2="227.389" gradientUnits="userSpaceOnUse">
<stop stop-color="#002A68"/>
<stop offset="0.27" stop-color="#115A80"/>
<stop offset="0.88" stop-color="#3BD3BC"/>
<stop offset="1" stop-color="#45EDC9"/>
</linearGradient>
<linearGradient id="paint9_linear_243_12579" x1="1168.45" y1="230.604" x2="1137.5" y2="185.743" gradientUnits="userSpaceOnUse">
<stop stop-color="#002A68"/>
<stop offset="0.27" stop-color="#115A80"/>
<stop offset="0.88" stop-color="#3BD3BC"/>
<stop offset="1" stop-color="#45EDC9"/>
</linearGradient>
<linearGradient id="paint10_linear_243_12579" x1="1164.35" y1="195.092" x2="1150.59" y2="175.139" gradientUnits="userSpaceOnUse">
<stop stop-color="#002A68"/>
<stop offset="0.27" stop-color="#115A80"/>
<stop offset="0.88" stop-color="#3BD3BC"/>
<stop offset="1" stop-color="#45EDC9"/>
</linearGradient>
<linearGradient id="paint11_linear_243_12579" x1="1249.11" y1="250.102" x2="1224.7" y2="214.723" gradientUnits="userSpaceOnUse">
<stop stop-color="#002A68"/>
<stop offset="0.27" stop-color="#115A80"/>
<stop offset="0.88" stop-color="#3BD3BC"/>
<stop offset="1" stop-color="#45EDC9"/>
</linearGradient>
<linearGradient id="paint12_linear_243_12579" x1="1196.86" y1="202.165" x2="1167.44" y2="159.526" gradientUnits="userSpaceOnUse">
<stop stop-color="#002A68"/>
<stop offset="0.27" stop-color="#115A80"/>
<stop offset="0.88" stop-color="#3BD3BC"/>
<stop offset="1" stop-color="#45EDC9"/>
</linearGradient>
<linearGradient id="paint13_linear_243_12579" x1="1358.25" y1="343.075" x2="1257.63" y2="128.869" gradientUnits="userSpaceOnUse">
<stop stop-color="#10062A"/>
<stop offset="0.52" stop-color="#1E0C45"/>
<stop offset="0.62" stop-color="#1B1550"/>
<stop offset="0.84" stop-color="#162563"/>
<stop offset="0.99" stop-color="#152B6A"/>
</linearGradient>
<linearGradient id="paint14_linear_243_12579" x1="1297.1" y1="194.174" x2="1350.85" y2="168.925" gradientUnits="userSpaceOnUse">
<stop stop-color="#002A68"/>
<stop offset="0.27" stop-color="#115A80"/>
<stop offset="0.88" stop-color="#3BD3BC"/>
<stop offset="1" stop-color="#45EDC9"/>
</linearGradient>
<linearGradient id="paint15_linear_243_12579" x1="1322.7" y1="271.442" x2="1365.95" y2="251.128" gradientUnits="userSpaceOnUse">
<stop stop-color="#002A68"/>
<stop offset="0.27" stop-color="#115A80"/>
<stop offset="0.88" stop-color="#3BD3BC"/>
<stop offset="1" stop-color="#45EDC9"/>
</linearGradient>
<linearGradient id="paint16_linear_243_12579" x1="1304.16" y1="229.76" x2="1310.47" y2="226.796" gradientUnits="userSpaceOnUse">
<stop stop-color="#002A68"/>
<stop offset="0.27" stop-color="#115A80"/>
<stop offset="0.88" stop-color="#3BD3BC"/>
<stop offset="1" stop-color="#45EDC9"/>
</linearGradient>
<linearGradient id="paint17_linear_243_12579" x1="1310.7" y1="238.992" x2="1367.38" y2="212.37" gradientUnits="userSpaceOnUse">
<stop stop-color="#002A68"/>
<stop offset="0.27" stop-color="#115A80"/>
<stop offset="0.88" stop-color="#3BD3BC"/>
<stop offset="1" stop-color="#45EDC9"/>
</linearGradient>
<linearGradient id="paint18_linear_243_12579" x1="1260.59" y1="180.279" x2="1280.1" y2="171.113" gradientUnits="userSpaceOnUse">
<stop stop-color="#002A68"/>
<stop offset="0.27" stop-color="#115A80"/>
<stop offset="0.88" stop-color="#3BD3BC"/>
<stop offset="1" stop-color="#45EDC9"/>
</linearGradient>
<linearGradient id="paint19_linear_243_12579" x1="1283.18" y1="170.034" x2="1335.31" y2="145.545" gradientUnits="userSpaceOnUse">
<stop stop-color="#002A68"/>
<stop offset="0.27" stop-color="#115A80"/>
<stop offset="0.88" stop-color="#3BD3BC"/>
<stop offset="1" stop-color="#45EDC9"/>
</linearGradient>
<linearGradient id="paint20_linear_243_12579" x1="1262.57" y1="230.278" x2="1279.05" y2="222.541" gradientUnits="userSpaceOnUse">
<stop stop-color="#002A68"/>
<stop offset="0.27" stop-color="#115A80"/>
<stop offset="0.88" stop-color="#3BD3BC"/>
<stop offset="1" stop-color="#45EDC9"/>
</linearGradient>
<linearGradient id="paint21_linear_243_12579" x1="1312.6" y1="322.832" x2="1470.38" y2="146.428" gradientUnits="userSpaceOnUse">
<stop stop-color="#10062A"/>
<stop offset="0.52" stop-color="#1E0C45"/>
<stop offset="0.62" stop-color="#1B1550"/>
<stop offset="0.84" stop-color="#162563"/>
<stop offset="0.99" stop-color="#152B6A"/>
</linearGradient>
<linearGradient id="paint22_linear_243_12579" x1="1425.72" y1="208.299" x2="1469.98" y2="247.893" gradientUnits="userSpaceOnUse">
<stop stop-color="#002A68"/>
<stop offset="0.27" stop-color="#115A80"/>
<stop offset="0.88" stop-color="#3BD3BC"/>
<stop offset="1" stop-color="#45EDC9"/>
</linearGradient>
<linearGradient id="paint23_linear_243_12579" x1="1362.54" y1="257.542" x2="1366.26" y2="260.869" gradientUnits="userSpaceOnUse">
<stop stop-color="#002A68"/>
<stop offset="0.27" stop-color="#115A80"/>
<stop offset="0.88" stop-color="#3BD3BC"/>
<stop offset="1" stop-color="#45EDC9"/>
</linearGradient>
<linearGradient id="paint24_linear_243_12579" x1="1395.73" y1="228.717" x2="1400.92" y2="233.357" gradientUnits="userSpaceOnUse">
<stop stop-color="#002A68"/>
<stop offset="0.27" stop-color="#115A80"/>
<stop offset="0.88" stop-color="#3BD3BC"/>
<stop offset="1" stop-color="#45EDC9"/>
</linearGradient>
<linearGradient id="paint25_linear_243_12579" x1="1389.79" y1="238.361" x2="1436.46" y2="280.107" gradientUnits="userSpaceOnUse">
<stop stop-color="#002A68"/>
<stop offset="0.27" stop-color="#115A80"/>
<stop offset="0.88" stop-color="#3BD3BC"/>
<stop offset="1" stop-color="#45EDC9"/>
</linearGradient>
<linearGradient id="paint26_linear_243_12579" x1="1424.21" y1="169.262" x2="1440.28" y2="183.642" gradientUnits="userSpaceOnUse">
<stop stop-color="#002A68"/>
<stop offset="0.27" stop-color="#115A80"/>
<stop offset="0.88" stop-color="#3BD3BC"/>
<stop offset="1" stop-color="#45EDC9"/>
</linearGradient>
<linearGradient id="paint27_linear_243_12579" x1="1442.48" y1="186.034" x2="1485.42" y2="224.441" gradientUnits="userSpaceOnUse">
<stop stop-color="#002A68"/>
<stop offset="0.27" stop-color="#115A80"/>
<stop offset="0.88" stop-color="#3BD3BC"/>
<stop offset="1" stop-color="#45EDC9"/>
</linearGradient>
<linearGradient id="paint28_linear_243_12579" x1="1325.33" y1="234.255" x2="1336.18" y2="243.962" gradientUnits="userSpaceOnUse">
<stop stop-color="#002A68"/>
<stop offset="0.27" stop-color="#115A80"/>
<stop offset="0.88" stop-color="#3BD3BC"/>
<stop offset="1" stop-color="#45EDC9"/>
</linearGradient>
<linearGradient id="paint29_linear_243_12579" x1="1324" y1="209.047" x2="1361.85" y2="242.9" gradientUnits="userSpaceOnUse">
<stop stop-color="#002A68"/>
<stop offset="0.27" stop-color="#115A80"/>
<stop offset="0.88" stop-color="#3BD3BC"/>
<stop offset="1" stop-color="#45EDC9"/>
</linearGradient>
<linearGradient id="paint30_linear_243_12579" x1="1378.98" y1="190.657" x2="1392.54" y2="202.79" gradientUnits="userSpaceOnUse">
<stop stop-color="#002A68"/>
<stop offset="0.27" stop-color="#115A80"/>
<stop offset="0.88" stop-color="#3BD3BC"/>
<stop offset="1" stop-color="#45EDC9"/>
</linearGradient>
<radialGradient id="paint31_radial_243_12579" cx="0" cy="0" r="1" gradientUnits="userSpaceOnUse" gradientTransform="translate(762.02 180.51) scale(13.39 13.39)">
<stop stop-color="#FFAC00"/>
<stop offset="0.07" stop-color="#DF9600"/>
<stop offset="0.22" stop-color="#A46F00"/>
<stop offset="0.36" stop-color="#724D00"/>
<stop offset="0.5" stop-color="#493100"/>
<stop offset="0.64" stop-color="#291B00"/>
<stop offset="0.77" stop-color="#120C00"/>
<stop offset="0.89" stop-color="#040300"/>
<stop offset="1"/>
</radialGradient>
<radialGradient id="paint32_radial_243_12579" cx="0" cy="0" r="1" gradientUnits="userSpaceOnUse" gradientTransform="translate(762.02 180.51) scale(8.19998 8.2)">
<stop stop-color="#FFAC00"/>
<stop offset="0.07" stop-color="#DF9600"/>
<stop offset="0.22" stop-color="#A46F00"/>
<stop offset="0.36" stop-color="#724D00"/>
<stop offset="0.5" stop-color="#493100"/>
<stop offset="0.64" stop-color="#291B00"/>
<stop offset="0.77" stop-color="#120C00"/>
<stop offset="0.89" stop-color="#040300"/>
<stop offset="1"/>
</radialGradient>
<radialGradient id="paint33_radial_243_12579" cx="0" cy="0" r="1" gradientUnits="userSpaceOnUse" gradientTransform="translate(732.39 -134.5) scale(13.39 13.39)">
<stop stop-color="#FFAC00"/>
<stop offset="0.07" stop-color="#DF9600"/>
<stop offset="0.22" stop-color="#A46F00"/>
<stop offset="0.36" stop-color="#724D00"/>
<stop offset="0.5" stop-color="#493100"/>
<stop offset="0.64" stop-color="#291B00"/>
<stop offset="0.77" stop-color="#120C00"/>
<stop offset="0.89" stop-color="#040300"/>
<stop offset="1"/>
</radialGradient>
<radialGradient id="paint34_radial_243_12579" cx="0" cy="0" r="1" gradientUnits="userSpaceOnUse" gradientTransform="translate(732.39 180.51) scale(8.19998 8.2)">
<stop stop-color="#FFAC00"/>
<stop offset="0.07" stop-color="#DF9600"/>
<stop offset="0.22" stop-color="#A46F00"/>
<stop offset="0.36" stop-color="#724D00"/>
<stop offset="0.5" stop-color="#493100"/>
<stop offset="0.64" stop-color="#291B00"/>
<stop offset="0.77" stop-color="#120C00"/>
<stop offset="0.89" stop-color="#040300"/>
<stop offset="1"/>
</radialGradient>
<linearGradient id="paint35_linear_243_12579" x1="761.05" y1="184.72" x2="761.05" y2="174.14" gradientUnits="userSpaceOnUse">
<stop stop-color="white"/>
<stop offset="0.5" stop-color="#F6DB00"/>
<stop offset="1" stop-color="#E87C00"/>
</linearGradient>
<linearGradient id="paint36_linear_243_12579" x1="732.6" y1="-135" x2="732.6" y2="-135" gradientUnits="userSpaceOnUse">
<stop stop-color="white"/>
<stop offset="0.5" stop-color="#F6DB00"/>
<stop offset="1" stop-color="#E87C00"/>
</linearGradient>
<linearGradient id="paint37_linear_243_12579" x1="761.05" y1="184.72" x2="761.05" y2="174.14" gradientUnits="userSpaceOnUse">
<stop stop-color="white"/>
<stop offset="0.5" stop-color="#F6DB00"/>
<stop offset="1" stop-color="#E87C00"/>
</linearGradient>
<linearGradient id="paint38_linear_243_12579" x1="732.6" y1="-135" x2="732.6" y2="-135" gradientUnits="userSpaceOnUse">
<stop stop-color="white"/>
<stop offset="0.5" stop-color="#F6DB00"/>
<stop offset="1" stop-color="#E87C00"/>
</linearGradient>
</defs>
</svg>
